<svg xmlns="http://www.w3.org/2000/svg" viewBox="0 0 76.6 129.02"><defs><style>.cls-1,.cls-2{fill:none;stroke:#335c6c;stroke-linecap:round;stroke-linejoin:round;}.cls-1{stroke-width:0.33px;}.cls-2{stroke-width:0.5px;}.cls-3{fill:#172a48;}</style></defs><g id="Layer_2" data-name="Layer 2"><g id="Layer_1-2" data-name="Layer 1"><polygon class="cls-1" points="11.59 41.44 14.76 49.06 22.94 50.13 27.96 43.58 24.8 35.96 16.61 34.89 11.59 41.44"/><polygon class="cls-1" points="7.74 40.93 12.39 52.14 24.43 53.72 31.81 44.08 27.16 32.87 15.12 31.3 7.74 40.93"/><polygon class="cls-1" points="3.76 40.41 9.95 55.33 25.97 57.43 35.8 44.61 29.6 29.68 13.58 27.59 3.76 40.41"/><polygon class="cls-1" points="0.86 40.03 8.17 57.65 27.09 60.13 38.69 44.98 31.38 27.36 12.46 24.89 0.86 40.03"/><line class="cls-1" x1="27.09" y1="60.13" x2="12.46" y2="24.89"/><line class="cls-1" x1="31.38" y1="27.37" x2="8.17" y2="57.65"/><line class="cls-1" x1="38.69" y1="44.98" x2="0.86" y2="40.03"/><polygon class="cls-2" points="16.7 100.13 21.54 111.81 34.08 113.45 41.77 103.41 36.92 91.73 24.39 90.09 16.7 100.13"/><polygon class="cls-2" points="10.79 99.36 17.92 116.53 36.36 118.94 47.67 104.18 40.54 87.01 22.1 84.59 10.79 99.36"/><polygon class="cls-2" points="4.69 98.56 14.18 121.42 38.72 124.63 53.78 104.98 44.29 82.12 19.74 78.91 4.69 98.56"/><polygon class="cls-2" points="0.25 97.98 11.46 124.97 40.44 128.76 58.21 105.56 47.01 78.57 18.03 74.78 0.25 97.98"/><line class="cls-2" x1="40.44" y1="128.76" x2="18.03" y2="74.78"/><line class="cls-2" x1="47.01" y1="78.57" x2="11.46" y2="124.97"/><line class="cls-2" x1="58.21" y1="105.56" x2="0.25" y2="97.98"/><path class="cls-3" d="M64.4,69.44a9,9,0,0,0,1.06-3.28,8.44,8.44,0,0,0,0-1.74L65.39,64l-.12-.42-.06-.21-.09-.21-.18-.4a10.22,10.22,0,0,0-2.25-2.6c-.86-.75-1.72-1.48-2.53-2.27A19.18,19.18,0,0,1,58,55.31a11,11,0,0,1-1.56-3,20.35,20.35,0,0,1-.83-3.27c-.2-1.11-.35-2.24-.58-3.36a9.84,9.84,0,0,0-1.16-3.24,5.3,5.3,0,0,0-2.66-2.17,10.9,10.9,0,0,0-3.26-.72,14.91,14.91,0,0,1,1.29-.91,11.72,11.72,0,0,1,2.22-1.09,14.76,14.76,0,0,1,2.42-.6c1.64-.35,3.28-.7,4.9-1.14.81-.23,1.62-.47,2.41-.78A10,10,0,0,0,63.4,33.9a3.17,3.17,0,0,1,1.11-.45,4,4,0,0,1,1.2-.05,4.67,4.67,0,0,1,2.24.86,3.81,3.81,0,0,1,.85.85,3.25,3.25,0,0,1,.51,1.08c.24.79.37,1.62.54,2.44a15,15,0,0,0,.64,2.45,5.47,5.47,0,0,0,1.39,2.15,4,4,0,0,0,2.33,1.09c.42,0,.85,0,1.08.29a2.17,2.17,0,0,1,.36,1.08l.31,0a3.87,3.87,0,0,0-.09-.66,1.4,1.4,0,0,0-.29-.67A1.26,1.26,0,0,0,74.9,44c-.23-.06-.44-.08-.63-.12a3.42,3.42,0,0,1-1.93-1.1,4.87,4.87,0,0,1-1.06-1.95,14.06,14.06,0,0,1-.44-2.34c-.06-.41-.11-.82-.16-1.25s-.14-.87-.26-1.33l-.09-.34-.14-.4a2.53,2.53,0,0,0-.18-.37c-.07-.12-.13-.25-.21-.36a5.29,5.29,0,0,0-1.08-1.18,5.91,5.91,0,0,0-1.34-.81A6.49,6.49,0,0,0,65.86,32a5.38,5.38,0,0,0-1.65,0,4.54,4.54,0,0,0-1.67.6l-.51.3-.46.22c-.33.14-.67.27-1,.39-.72.24-1.49.43-2.27.61-1.57.34-3.2.6-4.84.88l-.62.09-.31.06a2.21,2.21,0,0,0-.33.05l-.75.17c-.24.06-.48.14-.72.21A14.49,14.49,0,0,0,48,36.75c-.31.19-.62.38-.92.58-.49.34-1,.69-1.41,1.06s-.72.62-1.06.94l-.36.36c-.53.06-1,.16-1.56.25l-.84.18a7.79,7.79,0,0,0-.83.22,17.12,17.12,0,0,0-3,1.12c0-1.17,0-2.34-.11-3.51l-.16-1.77a6.73,6.73,0,0,1,0-1.42A7.67,7.67,0,0,1,38.7,32a16.67,16.67,0,0,1,1.89-2.63c.73-.86,1.53-1.72,2.32-2.65a17.13,17.13,0,0,0,2.2-3.11,8,8,0,0,0,1-4,8.44,8.44,0,0,0-.32-2,10.94,10.94,0,0,0-.74-1.83A16.24,16.24,0,0,0,43,12.67a27.56,27.56,0,0,0-2.57-2.61,35.94,35.94,0,0,0-2.84-2.25,26.34,26.34,0,0,0-3.1-1.92l-.2-.1-.11-.06L34,5.68l-.29-.11a2.86,2.86,0,0,0-.28-.07l-.29,0h-.29a3.2,3.2,0,0,0-.54,0,6.79,6.79,0,0,0-1.88.6A21.81,21.81,0,0,0,27.32,8c-1,.68-1.92,1.38-2.88,2a20.66,20.66,0,0,1-2.94,1.77,5.72,5.72,0,0,1-1.55.5A2.23,2.23,0,0,1,18.5,12,7.14,7.14,0,0,0,15,11a23.38,23.38,0,0,1-3.49-.15,6.52,6.52,0,0,1-3-1.53.14.14,0,0,0-.19.2h0a7.11,7.11,0,0,0,3.12,1.78,23.06,23.06,0,0,0,3.54.35A6.34,6.34,0,0,1,18,12.76a3.11,3.11,0,0,0,2,.46,6.52,6.52,0,0,0,1.86-.48,18,18,0,0,0,2.66-1.37c.19-.11.37-.21.55-.33,1-.62,2-1.27,3-1.88a21.57,21.57,0,0,1,3-1.6,5.24,5.24,0,0,1,1.42-.37,1,1,0,0,1,.3,0h.14l.12,0,.12,0,.1,0,0,0,.08,0,.18.11a25.38,25.38,0,0,1,2.76,1.93,32.12,32.12,0,0,1,2.54,2.25,23.63,23.63,0,0,1,2.21,2.51,13.88,13.88,0,0,1,1.66,2.72,7.78,7.78,0,0,1,.47,1.41,5.22,5.22,0,0,1,.14,1.34l0,.32-.06.3c0,.1,0,.21-.07.32a3,3,0,0,1-.1.32,6,6,0,0,1-.6,1.26,14.4,14.4,0,0,1-2,2.45c-.77.81-1.62,1.63-2.46,2.53a20,20,0,0,0-2.44,3.05,11.29,11.29,0,0,0-1.58,4,10.19,10.19,0,0,0-.16,2.2L34,38.15c0,1.11,0,2.22-.09,3.33a40.19,40.19,0,0,1-3,12.83l0,0,0,.07-.26-.18c-.64-.45-1.25-.92-1.84-1.42a17,17,0,0,1-3-3.21,6.83,6.83,0,0,1-.9-1.73c-.06-.15-.08-.29-.13-.43s-.06-.29-.06-.42l0-.21a2.61,2.61,0,0,1,0-.28V46c0-.79.08-1.58.16-2.38s.19-1.64.27-2.51A10.59,10.59,0,0,0,25,38.23a5.6,5.6,0,0,0-.53-1.5c-.14-.22-.27-.45-.43-.66s-.32-.4-.51-.58a4.43,4.43,0,0,0-1.33-.91,4.5,4.5,0,0,0-1.54-.34,17.74,17.74,0,0,0-2.6.24A3.68,3.68,0,0,1,16,34.22l-.23-.12L15.63,34l-.14-.09c-.19-.12-.37-.24-.57-.35a3.81,3.81,0,0,0-1.34-.5,1.76,1.76,0,0,0-.82.11,3.43,3.43,0,0,0-.61.32,2.09,2.09,0,0,1-.47.24,1.79,1.79,0,0,1-.53.07,4.89,4.89,0,0,1-2.23-.7l-.18.25A6.45,6.45,0,0,0,9.86,34a4,4,0,0,0,1.26.34,2.66,2.66,0,0,0,.69,0,4,4,0,0,0,.64-.24,1.37,1.37,0,0,1,1-.26,2.78,2.78,0,0,1,1,.48c.17.11.33.23.49.35s.36.26.53.38h0a5.92,5.92,0,0,0,.62.3,4.57,4.57,0,0,0,.66.18l.33.06c.11,0,.22,0,.33,0s.44,0,.66,0a22.2,22.2,0,0,1,2.43,0,2.77,2.77,0,0,1,1.84,1c.12.13.22.3.33.44s.17.32.26.47a3.64,3.64,0,0,1,.27,1,8.34,8.34,0,0,1-.15,2.31c-.14.79-.31,1.61-.47,2.43s-.28,1.68-.38,2.53l-.07.64a3,3,0,0,0,0,.32v.37a5.54,5.54,0,0,0,0,.71c0,.24.07.48.12.7a9.91,9.91,0,0,0,1,2.56,19.92,19.92,0,0,0,3.24,4.12c.61.61,1.25,1.19,1.9,1.75l.81.67-.15.25a5.54,5.54,0,0,1-.42.65l-.44.64-.55.81a15.37,15.37,0,0,0-1.84,4c-.05.19-.11.38-.16.58A21.65,21.65,0,0,0,25.07,68a32.64,32.64,0,0,0,.25,7.86c.19,1.28.44,2.54.76,3.82.17.64.35,1.28.58,2,.12.34.24.68.41,1.07l.13.3.18.36.05.09.08.13.16.26.08.13.09.11.1.13a3.63,3.63,0,0,0,.47.49,3.21,3.21,0,0,0,4.5-4.56l0-.09a6.48,6.48,0,0,1-.28-.63c-.18-.46-.36-1-.52-1.47a29.63,29.63,0,0,1-.8-3.15,26.87,26.87,0,0,1-.56-6.41,12.34,12.34,0,0,1,1.45-5.7l.17-.29.25-.4.5-.82c.17-.27.32-.55.47-.83l.44-.84c.29-.57.54-1.15.8-1.72s.47-1.16.69-1.75a41,41,0,0,0,1.86-7.16c.22-1.26.38-2.53.49-3.8l.22-.2.51-.37c.17-.12.39-.23.58-.35A14.46,14.46,0,0,1,41.78,43l.35-.12.36-.11.73-.2c.49-.11,1-.25,1.47-.32s1-.14,1.49-.2c.24,0,.48,0,.73,0l.37,0h.36a8.38,8.38,0,0,1,2.68.39,3.5,3.5,0,0,1,1,.46,3,3,0,0,1,.74.72,7.53,7.53,0,0,1,1.07,2.53c.27,1,.48,2.13.74,3.28A22.37,22.37,0,0,0,55,52.87a12.77,12.77,0,0,0,.84,1.7c.15.28.33.54.51.81s.37.48.55.73a21.19,21.19,0,0,0,2.47,2.62c.89.79,1.82,1.49,2.69,2.18a9.81,9.81,0,0,1,2.19,2.23l.16.33.09.16.06.17.12.35c0,.12,0,.25.07.37a4.77,4.77,0,0,1,.09.77c0,.27,0,.53,0,.8A8.18,8.18,0,0,1,64,69.2,12.61,12.61,0,0,1,62.1,72l.24.2A13.14,13.14,0,0,0,64.4,69.44ZM33,80.27s0,0,0,0h0l0-.05Z"/><path class="cls-3" d="M23.59,8.81a.75.75,0,0,0,0-1.5c-.42,0-1.26.77-1.26.77S23.17,8.82,23.59,8.81Z"/><path class="cls-3" d="M25.14,6.53a.61.61,0,1,0,.95.77,2.82,2.82,0,0,0,.17-1.2S25.35,6.27,25.14,6.53Z"/><path class="cls-3" d="M22.89,6.47a.67.67,0,1,0,.79-1.08,3.15,3.15,0,0,0-1.31-.13S22.6,6.26,22.89,6.47Z"/><path class="cls-3" d="M25.19,4.77a.45.45,0,0,0-.13.62.44.44,0,0,0,.61.14c.21-.14.41-.79.41-.79A2.11,2.11,0,0,0,25.19,4.77Z"/><path class="cls-3" d="M25.13,3.42a.44.44,0,0,0,.19.6.44.44,0,0,0,.6-.19c.12-.22,0-.88,0-.88S25.24,3.2,25.13,3.42Z"/><path class="cls-3" d="M23.91,1.93a.34.34,0,0,0,.31.37A.34.34,0,0,0,24.58,2c0-.18-.29-.59-.29-.59S23.92,1.75,23.91,1.93Z"/><path class="cls-3" d="M23.74.93a.21.21,0,0,0,0,.3.21.21,0,0,0,.29,0c.08-.09.07-.42.07-.42S23.81.84,23.74.93Z"/><path class="cls-3" d="M23.41.36a.23.23,0,0,0,.19.28.25.25,0,0,0,.29-.19A1.17,1.17,0,0,0,23.72,0S23.43.23,23.41.36Z"/><path class="cls-3" d="M23.5,4.44a.56.56,0,0,0,.78-.12.55.55,0,0,0-.12-.78,2.59,2.59,0,0,0-1.1-.11S23.25,4.26,23.5,4.44Z"/><path class="cls-3" d="M23.05,2.86a.39.39,0,0,0,.46-.3.38.38,0,0,0-.29-.46,1.86,1.86,0,0,0-.73.24S22.85,2.81,23.05,2.86Z"/><path class="cls-3" d="M22.84,1.36a.3.3,0,0,0,.41,0,.29.29,0,0,0,0-.42c-.11-.12-.56-.15-.56-.15S22.72,1.24,22.84,1.36Z"/><path class="cls-3" d="M26.37,9c-.26-.29-.53-.6-.78-.91a6.65,6.65,0,0,1-.67-1,1.9,1.9,0,0,1-.21-.47s0-.06,0-.09a.23.23,0,0,1,0-.09l0-.31c.06-.41.11-.83.15-1.24S25,4.1,25,3.66a1.09,1.09,0,0,0,0-.18.72.72,0,0,0,0-.21l-.05-.1-.05-.08L24.72,3c-.15-.17-.32-.31-.47-.45l-.46-.4a1.12,1.12,0,0,1-.18-.21.52.52,0,0,1,0-.24A6.38,6.38,0,0,1,23.73.44l-.13,0c-.07.2-.12.4-.17.6a4.37,4.37,0,0,0-.11.63.71.71,0,0,0,.05.37,1,1,0,0,0,.19.29c.15.17.3.31.44.46a4,4,0,0,1,.39.45l.07.11,0,.05v0a.08.08,0,0,1,0,0s0,0,0,0a.53.53,0,0,0,0,.13c0,.39-.12.8-.19,1.2s-.17.81-.26,1.21l-.07.3s0,.14,0,.22a1.5,1.5,0,0,0,0,.22,2.74,2.74,0,0,0,.22.7,8.43,8.43,0,0,0,.65,1.14,12.55,12.55,0,0,0,.76,1Z"/><path class="cls-3" d="M18.13,34.44a.51.51,0,0,0,.51-.52.52.52,0,0,0-.53-.51c-.28,0-.87.53-.87.53S17.85,34.45,18.13,34.44Z"/><path class="cls-3" d="M19.2,32.87a.43.43,0,0,0,.07.59.42.42,0,0,0,.59-.06,1.89,1.89,0,0,0,.12-.83A2,2,0,0,0,19.2,32.87Z"/><path class="cls-3" d="M17.65,32.83a.47.47,0,0,0,.65-.1.46.46,0,0,0-.1-.65,2.12,2.12,0,0,0-.91-.09S17.45,32.68,17.65,32.83Z"/><path class="cls-3" d="M19.24,31.65a.32.32,0,0,0-.09.43.31.31,0,0,0,.43.09c.14-.09.27-.54.27-.54A1.43,1.43,0,0,0,19.24,31.65Z"/><path class="cls-3" d="M19.2,30.72a.3.3,0,0,0,.13.41.31.31,0,0,0,.42-.13,1.4,1.4,0,0,0,0-.61S19.28,30.57,19.2,30.72Z"/><path class="cls-3" d="M18.35,29.69a.24.24,0,0,0,.22.25.23.23,0,0,0,.25-.21c0-.13-.2-.42-.2-.42S18.36,29.56,18.35,29.69Z"/><path class="cls-3" d="M18.24,29a.13.13,0,0,0,0,.2.14.14,0,0,0,.2,0,.68.68,0,0,0,.05-.28S18.29,28.93,18.24,29Z"/><path class="cls-3" d="M18,28.61a.16.16,0,0,0,.13.19.17.17,0,0,0,.2-.13c0-.09-.11-.31-.11-.31S18,28.51,18,28.61Z"/><path class="cls-3" d="M18.08,31.42a.37.37,0,0,0,.53-.08.38.38,0,0,0-.08-.54c-.17-.13-.76-.08-.76-.08S17.9,31.3,18.08,31.42Z"/><path class="cls-3" d="M17.77,30.33a.26.26,0,0,0,.31-.2.27.27,0,0,0-.2-.32,1.21,1.21,0,0,0-.5.16S17.62,30.3,17.77,30.33Z"/><path class="cls-3" d="M17.62,29.29a.19.19,0,0,0,.28,0,.21.21,0,0,0,0-.29c-.08-.08-.39-.1-.39-.1A1,1,0,0,0,17.62,29.29Z"/><path class="cls-3" d="M20.06,34.57a8,8,0,0,1-.54-.62,4.79,4.79,0,0,1-.47-.67,2.08,2.08,0,0,1-.14-.32s0-.05,0-.06v-.07l0-.21c0-.29.07-.57.1-.86a8.29,8.29,0,0,0,.06-.88v-.12a.42.42,0,0,0,0-.15l0-.06,0-.06a.7.7,0,0,0-.08-.1,3.11,3.11,0,0,0-.32-.31c-.11-.09-.22-.18-.32-.28a.53.53,0,0,1-.12-.14.35.35,0,0,1,0-.16,4,4,0,0,1,.11-.84l-.09,0c0,.14-.08.27-.12.42a3,3,0,0,0-.07.43.61.61,0,0,0,0,.26,1,1,0,0,0,.14.2l.3.31a3.74,3.74,0,0,1,.27.31s0,.05,0,.08l0,0v.06s0,0,0,0v.09a8.38,8.38,0,0,1-.13.83l-.18.84-.05.21s0,.09,0,.15,0,.1,0,.15a1.81,1.81,0,0,0,.16.48,5.56,5.56,0,0,0,.45.79,8.72,8.72,0,0,0,.52.72Z"/><path class="cls-3" d="M42.62,19.08a.76.76,0,0,0-.74-.76.75.75,0,0,0-.76.74c0,.42.73,1.29.73,1.29S42.61,19.49,42.62,19.08Z"/><path class="cls-3" d="M40.39,17.46a.61.61,0,1,0,.79-.93A2.78,2.78,0,0,0,40,16.32S40.13,17.24,40.39,17.46Z"/><path class="cls-3" d="M40.26,19.7a.67.67,0,1,0-1-.82A3,3,0,0,0,39,20.19S40,20,40.26,19.7Z"/><path class="cls-3" d="M38.63,17.35a.45.45,0,0,0,.61.16.46.46,0,0,0,.16-.62c-.13-.21-.78-.42-.78-.42A2,2,0,0,0,38.63,17.35Z"/><path class="cls-3" d="M37.28,17.37a.43.43,0,0,0,.6-.17.45.45,0,0,0-.17-.61,2,2,0,0,0-.88,0S37.06,17.25,37.28,17.37Z"/><path class="cls-3" d="M35.75,18.55a.34.34,0,0,0,.38-.3.34.34,0,0,0-.3-.37c-.19,0-.61.28-.61.28S35.57,18.53,35.75,18.55Z"/><path class="cls-3" d="M34.74,18.69a.21.21,0,1,0,.28-.32,1,1,0,0,0-.41-.07A1,1,0,0,0,34.74,18.69Z"/><path class="cls-3" d="M34.17,19a.24.24,0,0,0,.29-.18.26.26,0,0,0-.19-.29c-.13,0-.45.15-.45.15S34,19,34.17,19Z"/><path class="cls-3" d="M38.25,19a.56.56,0,0,0-.89-.68,2.66,2.66,0,0,0-.14,1.09S38.06,19.28,38.25,19Z"/><path class="cls-3" d="M36.65,19.43a.39.39,0,0,0-.75-.18c0,.2.22.73.22.73S36.6,19.64,36.65,19.43Z"/><path class="cls-3" d="M35.14,19.61a.3.3,0,0,0,0-.42.29.29,0,0,0-.42,0c-.12.11-.16.55-.16.55S35,19.72,35.14,19.61Z"/><path class="cls-3" d="M42.89,16.3c-.29.26-.61.52-.93.76a7.14,7.14,0,0,1-1,.64,2,2,0,0,1-.48.19h-.08a.31.31,0,0,1-.1,0l-.3,0-1.24-.19c-.42-.05-.83-.11-1.27-.13h-.17a.85.85,0,0,0-.22,0l-.1,0-.08.05a.85.85,0,0,0-.14.1,5.15,5.15,0,0,0-.47.46q-.21.24-.42.45a1,1,0,0,1-.21.17.54.54,0,0,1-.24,0,5.68,5.68,0,0,1-1.2-.2l0,.14q.3.11.6.18a3.2,3.2,0,0,0,.63.13.7.7,0,0,0,.37,0,1.32,1.32,0,0,0,.29-.19c.17-.14.32-.29.47-.43a5,5,0,0,1,.46-.37l.11-.07.06,0,0,0h0s0,0,.05,0h.13c.39.05.79.14,1.19.23l1.21.29.3.08a.86.86,0,0,0,.21,0,1.61,1.61,0,0,0,.22,0,3.22,3.22,0,0,0,.7-.2,8,8,0,0,0,1.16-.62c.37-.23.72-.46,1.07-.72Z"/><path class="cls-3" d="M62.58,35.57a.54.54,0,1,0-.24,1c.29.07,1-.32,1-.32S62.87,35.63,62.58,35.57Z"/><path class="cls-3" d="M61.1,36.9a.45.45,0,1,0-.55-.7c-.19.15-.32.81-.32.81A2,2,0,0,0,61.1,36.9Z"/><path class="cls-3" d="M62.66,37.33a.48.48,0,0,0-.68-.06.49.49,0,0,0-.06.68c.17.21.9.32.9.32S62.84,37.53,62.66,37.33Z"/><path class="cls-3" d="M60.75,38.13a.32.32,0,0,0,.2-.41.32.32,0,0,0-.41-.2c-.17,0-.42.48-.42.48S60.58,38.19,60.75,38.13Z"/><path class="cls-3" d="M60.56,39.09a.32.32,0,0,0-.49-.42c-.12.13-.12.62-.12.62S60.44,39.23,60.56,39.09Z"/><path class="cls-3" d="M61.16,40.35A.24.24,0,0,0,61,40a.25.25,0,0,0-.31.16,1.14,1.14,0,0,0,.1.47S61.12,40.48,61.16,40.35Z"/><path class="cls-3" d="M61.11,41.09a.15.15,0,0,0,0-.21.14.14,0,0,0-.21,0c-.07,0-.12.28-.12.28A.74.74,0,0,0,61.11,41.09Z"/><path class="cls-3" d="M61.24,41.55a.18.18,0,0,0-.09-.24.18.18,0,0,0-.23.09.81.81,0,0,0,0,.35S61.2,41.64,61.24,41.55Z"/><path class="cls-3" d="M61.88,38.66a.4.4,0,0,0-.57,0,.41.41,0,0,0-.05.57,1.93,1.93,0,0,0,.76.27S62,38.83,61.88,38.66Z"/><path class="cls-3" d="M61.93,39.85a.28.28,0,0,0-.38.13.27.27,0,0,0,.13.37,1.24,1.24,0,0,0,.55,0S62.06,39.92,61.93,39.85Z"/><path class="cls-3" d="M61.82,41a.21.21,0,0,0-.3-.08.22.22,0,0,0-.07.3c.06.1.37.2.37.2A1,1,0,0,0,61.82,41Z"/><path class="cls-3" d="M60.65,35c.14.25.28.51.4.77a5.21,5.21,0,0,1,.3.8,1.88,1.88,0,0,1,.07.36.2.2,0,0,0,0,.07s0,0,0,.06l-.08.21c-.11.28-.22.57-.32.85s-.2.57-.28.88l0,.13a.85.85,0,0,0,0,.16l0,.07,0,.07a.61.61,0,0,0,.05.12,3.89,3.89,0,0,0,.25.4l.26.36a.85.85,0,0,1,.08.17.28.28,0,0,1,0,.18,3.58,3.58,0,0,1-.32.82l.09,0c.08-.13.15-.26.22-.4a2.68,2.68,0,0,0,.19-.42.58.58,0,0,0,0-.27,1.34,1.34,0,0,0-.09-.24c-.07-.14-.15-.27-.23-.4a2.75,2.75,0,0,1-.2-.38s0-.06,0-.09l0,0v-.07s0,0,0,0a.54.54,0,0,1,0-.1c.09-.26.22-.54.34-.81l.39-.81.1-.2.06-.14,0-.16a2.2,2.2,0,0,0,0-.53,6.94,6.94,0,0,0-.26-.92c-.11-.29-.22-.57-.35-.86Z"/><path class="cls-3" d="M56.14,47.34A.54.54,0,0,0,57,48c.19-.23.15-1.06.15-1.06S56.32,47.1,56.14,47.34Z"/><path class="cls-3" d="M56.7,49.26a.43.43,0,0,0-.52-.34.44.44,0,0,0-.35.52c.06.24.6.65.6.65A2,2,0,0,0,56.7,49.26Z"/><path class="cls-3" d="M57.77,48a.49.49,0,0,0-.35.6A.49.49,0,0,0,58,49c.26-.07.68-.68.68-.68A2.37,2.37,0,0,0,57.77,48Z"/><path class="cls-3" d="M57.67,50.1a.33.33,0,0,0-.29-.36A.32.32,0,0,0,57,50c0,.18.26.59.26.59S57.64,50.28,57.67,50.1Z"/><path class="cls-3" d="M58.45,50.68a.32.32,0,1,0-.59.26c.07.16.51.38.51.38A1.5,1.5,0,0,0,58.45,50.68Z"/><path class="cls-3" d="M59.85,50.68a.25.25,0,0,0-.35,0,.24.24,0,0,0,0,.34c.1.1.47.11.47.11S60,50.77,59.85,50.68Z"/><path class="cls-3" d="M60.49,51a.16.16,0,0,0-.18-.12.16.16,0,0,0-.12.19c0,.08.2.22.2.22S60.51,51.13,60.49,51Z"/><path class="cls-3" d="M61,51.12a.18.18,0,1,0-.27.23.89.89,0,0,0,.33.11A.83.83,0,0,0,61,51.12Z"/><path class="cls-3" d="M58.63,49.3a.4.4,0,0,0-.29.49.4.4,0,0,0,.49.29c.22,0,.57-.56.57-.56S58.84,49.24,58.63,49.3Z"/><path class="cls-3" d="M59.72,49.77a.29.29,0,0,0,0,.4.27.27,0,0,0,.39,0c.12-.09.2-.51.2-.51A1.35,1.35,0,0,0,59.72,49.77Z"/><path class="cls-3" d="M60.67,50.34a.22.22,0,0,0-.2.24.23.23,0,0,0,.24.19c.12,0,.34-.25.34-.25S60.78,50.33,60.67,50.34Z"/><path class="cls-3" d="M54.75,48.82c.28,0,.58,0,.87,0a5.85,5.85,0,0,1,.85.07,1.71,1.71,0,0,1,.36.1l.05,0,0,0,.16.16q.3.33.63.66c.21.21.42.42.67.63l.1.07a.41.41,0,0,0,.15.07l.07,0h.2a3.55,3.55,0,0,0,.47-.06,3.49,3.49,0,0,1,.43-.07H60a.49.49,0,0,1,.15.09,4.12,4.12,0,0,1,.61.64l.08,0c-.08-.13-.17-.26-.26-.38a3.38,3.38,0,0,0-.31-.35.56.56,0,0,0-.23-.14,1.1,1.1,0,0,0-.25,0c-.16,0-.31,0-.46,0a3.12,3.12,0,0,1-.43,0h-.2l0,0-.08-.07c-.2-.2-.39-.43-.58-.66s-.38-.46-.56-.7l-.14-.17-.11-.12a.51.51,0,0,0-.13-.09,2.2,2.2,0,0,0-.49-.2,6.37,6.37,0,0,0-.94-.16c-.31,0-.62-.05-.94-.05Z"/><path class="cls-3" d="M65.87,62.64a.38.38,0,0,0,.52.55,1.8,1.8,0,0,0,.21-.72A1.79,1.79,0,0,0,65.87,62.64Z"/><path class="cls-3" d="M66.07,64a.3.3,0,0,0-.33-.28.31.31,0,0,0-.29.33c0,.17.35.5.35.5S66.08,64.18,66.07,64Z"/><path class="cls-3" d="M66.92,63.27a.34.34,0,0,0-.29.38.33.33,0,0,0,.37.29c.18,0,.53-.39.53-.39S67.11,63.25,66.92,63.27Z"/><path class="cls-3" d="M66.65,64.69a.24.24,0,0,0-.16-.28.23.23,0,0,0-.28.16,1.06,1.06,0,0,0,.12.43S66.61,64.81,66.65,64.69Z"/><path class="cls-3" d="M67.13,65.17a.22.22,0,0,0-.27-.16.22.22,0,0,0-.16.28c0,.12.31.31.31.31A1.06,1.06,0,0,0,67.13,65.17Z"/><path class="cls-3" d="M68.09,65.31a.16.16,0,0,0-.24,0,.18.18,0,0,0,0,.24.86.86,0,0,0,.32.12S68.15,65.38,68.09,65.31Z"/><path class="cls-3" d="M68.5,65.62a.12.12,0,0,0-.12-.1.13.13,0,0,0-.1.12.68.68,0,0,0,.12.17A.54.54,0,0,0,68.5,65.62Z"/><path class="cls-3" d="M68.81,65.72a.14.14,0,0,0-.17,0,.14.14,0,0,0,0,.17c0,.06.22.11.22.11S68.85,65.78,68.81,65.72Z"/><path class="cls-3" d="M67.39,64.24a.27.27,0,0,0-.25.31.3.3,0,0,0,.31.25c.16,0,.45-.34.45-.34S67.54,64.22,67.39,64.24Z"/><path class="cls-3" d="M68.09,64.67a.2.2,0,0,0,.2.34c.09-.05.19-.33.19-.33A.94.94,0,0,0,68.09,64.67Z"/><path class="cls-3" d="M68.69,65.16a.15.15,0,0,0-.16.14.16.16,0,0,0,.14.16c.08,0,.26-.14.26-.14S68.77,65.16,68.69,65.16Z"/><path class="cls-3" d="M64.77,63.52c.2,0,.4,0,.6.07a3.51,3.51,0,0,1,.58.13,1,1,0,0,1,.23.1l0,0,0,0,.09.12c.12.18.24.35.37.52a4.61,4.61,0,0,0,.4.5l.06.06.09.07,0,0h.13a1.24,1.24,0,0,0,.33,0h.45l.09.08a2.49,2.49,0,0,1,.35.5l.07,0-.15-.28a1.53,1.53,0,0,0-.17-.27.44.44,0,0,0-.14-.13l-.18,0-.31,0a1.39,1.39,0,0,1-.3,0l-.06,0h-.06s0,0,0,0h0l0-.05c-.12-.16-.23-.34-.34-.52s-.21-.35-.32-.53l-.07-.14-.07-.09a.6.6,0,0,0-.08-.08,1.45,1.45,0,0,0-.32-.18,3.83,3.83,0,0,0-.63-.2,4.4,4.4,0,0,0-.63-.13Z"/><path class="cls-3" d="M58,58a.54.54,0,1,0-.87.65c.18.24,1,.41,1,.41A2.45,2.45,0,0,0,58,58Z"/><path class="cls-3" d="M56,58.06a.45.45,0,0,0,.46-.43.43.43,0,0,0-.42-.46c-.24,0-.77.41-.77.41S55.8,58,56,58.06Z"/><path class="cls-3" d="M57,59.4a.49.49,0,1,0-1,0c0,.27.48.83.48.83S57,59.67,57,59.4Z"/><path class="cls-3" d="M55,58.77a.32.32,0,0,0,.42-.18.31.31,0,0,0-.18-.42c-.17-.07-.63.1-.63.1S54.81,58.7,55,58.77Z"/><path class="cls-3" d="M54.21,59.38a.32.32,0,0,0,.28-.36.34.34,0,0,0-.37-.28c-.18,0-.5.4-.5.4S54,59.41,54.21,59.38Z"/><path class="cls-3" d="M53.86,60.73a.24.24,0,1,0-.26-.41c-.11.07-.22.42-.22.42S53.74,60.81,53.86,60.73Z"/><path class="cls-3" d="M53.34,61.26a.15.15,0,0,0,0-.3c-.09,0-.27.13-.27.13S53.26,61.26,53.34,61.26Z"/><path class="cls-3" d="M53.15,61.7a.18.18,0,0,0,.08-.24.17.17,0,0,0-.23-.08c-.09,0-.2.29-.2.29A.85.85,0,0,0,53.15,61.7Z"/><path class="cls-3" d="M55.5,59.91a.4.4,0,0,0-.4-.41.41.41,0,0,0-.41.4c0,.23.41.69.41.69S55.5,60.13,55.5,59.91Z"/><path class="cls-3" d="M54.77,60.84a.29.29,0,0,0-.37-.14.28.28,0,0,0-.15.37c.06.14.45.32.45.32A1.3,1.3,0,0,0,54.77,60.84Z"/><path class="cls-3" d="M54,61.61a.23.23,0,0,0-.18-.25.22.22,0,0,0-.25.18c0,.12.16.39.16.39S54,61.73,54,61.61Z"/><path class="cls-3" d="M57,56.28a8.71,8.71,0,0,1-.2.85,4.2,4.2,0,0,1-.28.8,1.59,1.59,0,0,1-.18.32l0,0-.06,0-.2.11-.79.44c-.26.16-.52.31-.78.49l-.1.08a.63.63,0,0,0-.11.12l0,.07,0,.06s0,.08,0,.13a2.53,2.53,0,0,0-.06.46c0,.16,0,.31,0,.45a1.05,1.05,0,0,1,0,.19.45.45,0,0,1-.12.12,4.16,4.16,0,0,1-.78.42l0,.1.43-.16a2.74,2.74,0,0,0,.42-.21.48.48,0,0,0,.2-.18,1.13,1.13,0,0,0,.08-.24c0-.16.06-.31.09-.45a2.59,2.59,0,0,1,.09-.42.36.36,0,0,1,0-.09l0,0,0,0,0,0,0,0,.08-.06c.24-.14.52-.27.78-.39l.82-.37.21-.09.14-.07a.63.63,0,0,0,.12-.1A2,2,0,0,0,57,58.2a6.1,6.1,0,0,0,.39-.87,8.42,8.42,0,0,0,.29-.89Z"/><path class="cls-3" d="M49.47,34.67a.54.54,0,1,0,.61-.9A2.41,2.41,0,0,0,49,33.71S49.22,34.51,49.47,34.67Z"/><path class="cls-3" d="M51.34,34a.44.44,0,0,0,.25.85c.24-.07.6-.64.6-.64S51.57,33.89,51.34,34Z"/><path class="cls-3" d="M50,33a.49.49,0,0,0,.62.3.5.5,0,0,0,.3-.62c-.09-.25-.73-.62-.73-.62A2.15,2.15,0,0,0,50,33Z"/><path class="cls-3" d="M52.11,32.94a.33.33,0,1,0,0,.65c.18,0,.56-.3.56-.3S52.28,33,52.11,32.94Z"/><path class="cls-3" d="M52.63,32.11a.33.33,0,0,0-.14.44.32.32,0,0,0,.44.13c.16-.08.34-.54.34-.54S52.79,32,52.63,32.11Z"/><path class="cls-3" d="M52.52,30.72a.24.24,0,0,0,0,.34.25.25,0,0,0,.35,0,1.21,1.21,0,0,0,.07-.48S52.6,30.61,52.52,30.72Z"/><path class="cls-3" d="M52.83,30.05a.15.15,0,1,0,.09.29c.08,0,.21-.22.21-.22S52.91,30,52.83,30.05Z"/><path class="cls-3" d="M52.87,29.57a.18.18,0,0,0,.25.25c.07-.06.09-.33.09-.33A.94.94,0,0,0,52.87,29.57Z"/><path class="cls-3" d="M51.24,32a.4.4,0,0,0,.51.25.39.39,0,0,0,.25-.51c-.07-.22-.61-.52-.61-.52S51.16,31.83,51.24,32Z"/><path class="cls-3" d="M51.63,30.91a.27.27,0,0,0,.39,0,.28.28,0,0,0,0-.4,1.36,1.36,0,0,0-.53-.16S51.52,30.8,51.63,30.91Z"/><path class="cls-3" d="M52.12,29.93a.21.21,0,1,0,.42-.08c0-.11-.27-.32-.27-.32S52.1,29.81,52.12,29.93Z"/><path class="cls-3" d="M51.05,35.94c0-.28-.07-.57-.09-.86a6,6,0,0,1,0-.85,1.74,1.74,0,0,1,.07-.37l0-.06,0,0,.16-.17.6-.67c.2-.24.39-.46.58-.72l.07-.11a.38.38,0,0,0,.05-.15l0-.07v-.2a3.25,3.25,0,0,0-.1-.47c0-.14-.07-.29-.1-.43a.68.68,0,0,1,0-.19.43.43,0,0,1,.07-.16,4.1,4.1,0,0,1,.6-.65L53,29.68l-.36.29a2.51,2.51,0,0,0-.32.33.55.55,0,0,0-.13.24,1,1,0,0,0,0,.25c0,.16.05.31.07.46a3.19,3.19,0,0,1,.05.42s0,.07,0,.1v0l0,0a0,0,0,0,1,0,0s0,0,0,0a.27.27,0,0,1-.07.08,7.27,7.27,0,0,1-.61.64l-.65.61-.17.15a.69.69,0,0,0-.1.12,1.1,1.1,0,0,0-.09.14,2,2,0,0,0-.15.5,6.34,6.34,0,0,0-.09,1c0,.31,0,.62,0,.94Z"/><path class="cls-3" d="M26,49.63a.57.57,0,1,0,.87-.74c-.2-.24-1.06-.38-1.06-.38S25.76,49.39,26,49.63Z"/><path class="cls-3" d="M28.07,49.45a.48.48,0,0,0-.47.48.48.48,0,0,0,.48.46c.26,0,.79-.47.79-.47S28.33,49.45,28.07,49.45Z"/><path class="cls-3" d="M27,48.09a.52.52,0,1,0,1-.05c0-.29-.56-.85-.56-.85S27,47.81,27,48.09Z"/><path class="cls-3" d="M29.15,48.64a.34.34,0,0,0-.22.65,1.55,1.55,0,0,0,.66-.14S29.33,48.7,29.15,48.64Z"/><path class="cls-3" d="M29.92,48a.34.34,0,0,0,.14.67c.19,0,.51-.45.51-.45S30.11,47.91,29.92,48Z"/><path class="cls-3" d="M30.22,46.5a.26.26,0,0,0,.29.43c.12-.08.22-.47.22-.47A1.21,1.21,0,0,0,30.22,46.5Z"/><path class="cls-3" d="M30.74,45.91a.18.18,0,0,0-.17.17.16.16,0,0,0,.16.16c.09,0,.28-.16.28-.16S30.83,45.91,30.74,45.91Z"/><path class="cls-3" d="M30.92,45.44a.2.2,0,0,0-.08.26.18.18,0,0,0,.25.07c.09-.05.19-.31.19-.31A.94.94,0,0,0,30.92,45.44Z"/><path class="cls-3" d="M28.53,47.47a.43.43,0,0,0,.45.41.44.44,0,0,0,.41-.45c0-.24-.47-.71-.47-.71S28.52,47.23,28.53,47.47Z"/><path class="cls-3" d="M29.26,46.44a.3.3,0,0,0,.39.13.3.3,0,0,0,.14-.4c-.08-.14-.5-.32-.5-.32A1.3,1.3,0,0,0,29.26,46.44Z"/><path class="cls-3" d="M30.05,45.58a.21.21,0,0,0,.2.25.22.22,0,0,0,.25-.2c0-.12-.19-.41-.19-.41S30.06,45.46,30.05,45.58Z"/><path class="cls-3" d="M27.2,51.38a8.91,8.91,0,0,1,.16-.9,5.85,5.85,0,0,1,.25-.87,1.43,1.43,0,0,1,.18-.35l.05,0,.05,0L28.1,49q.41-.24.81-.51a9.7,9.7,0,0,0,.8-.56l.1-.09a.64.64,0,0,0,.1-.13l0-.07,0-.07a.7.7,0,0,0,0-.14,2.81,2.81,0,0,0,.05-.49,3.62,3.62,0,0,1,0-.47.66.66,0,0,1,0-.21s.07-.09.13-.14a4.16,4.16,0,0,1,.79-.48l0-.1-.44.19a2.61,2.61,0,0,0-.43.24.58.58,0,0,0-.2.21,1.44,1.44,0,0,0-.08.25c0,.17,0,.33-.06.49a2.87,2.87,0,0,1-.08.44l0,.1,0,0,0,0,0,0,0,0-.09.06a9,9,0,0,1-.81.47l-.84.43-.21.11-.15.08-.12.12a1.91,1.91,0,0,0-.31.47,6,6,0,0,0-.37.93c-.1.32-.18.63-.25,1Z"/><path class="cls-3" d="M70.55,33.7a.54.54,0,0,0,1,.32c.09-.29-.25-1.05-.25-1.05S70.64,33.41,70.55,33.7Z"/><path class="cls-3" d="M71.78,35.28a.44.44,0,1,0-.74.49c.13.2.78.38.78.38A2.05,2.05,0,0,0,71.78,35.28Z"/><path class="cls-3" d="M72.32,33.74a.49.49,0,1,0,.57.79c.21-.16.38-.88.38-.88A2.3,2.3,0,0,0,72.32,33.74Z"/><path class="cls-3" d="M73,35.71a.33.33,0,0,0-.4-.23.33.33,0,0,0-.23.4c.05.17.45.45.45.45A1.53,1.53,0,0,0,73,35.71Z"/><path class="cls-3" d="M73.93,36a.32.32,0,0,0-.46,0,.33.33,0,0,0,0,.46,1.59,1.59,0,0,0,.62.16A1.54,1.54,0,0,0,73.93,36Z"/><path class="cls-3" d="M75.23,35.46a.24.24,0,1,0-.19.45,1.12,1.12,0,0,0,.48-.07S75.35,35.51,75.23,35.46Z"/><path class="cls-3" d="M76,35.56a.15.15,0,0,0-.21,0,.14.14,0,0,0,0,.21.77.77,0,0,0,.27.14A.83.83,0,0,0,76,35.56Z"/><path class="cls-3" d="M76.42,35.47a.17.17,0,1,0-.16.3c.08,0,.34,0,.34,0S76.51,35.51,76.42,35.47Z"/><path class="cls-3" d="M73.59,34.62a.39.39,0,0,0-.09.57.4.4,0,0,0,.56.09,1.93,1.93,0,0,0,.32-.74A1.85,1.85,0,0,0,73.59,34.62Z"/><path class="cls-3" d="M74.78,34.66a.28.28,0,1,0,.48.29,1.28,1.28,0,0,0,0-.56S74.86,34.53,74.78,34.66Z"/><path class="cls-3" d="M75.86,34.85a.21.21,0,0,0,.2.38c.1,0,.22-.36.22-.36S76,34.79,75.86,34.85Z"/><path class="cls-3" d="M69.8,35.58c.26-.12.53-.24.8-.34a6.8,6.8,0,0,1,.81-.25,1.71,1.71,0,0,1,.37,0h.07l.06,0,.2.1.83.38c.28.12.55.24.86.34l.12,0a.81.81,0,0,0,.16,0h.07l.07,0,.12,0a2.37,2.37,0,0,0,.42-.22l.38-.23.18-.07a.3.3,0,0,1,.18,0,3.58,3.58,0,0,1,.79.38l.06-.08L76,35.33a2.63,2.63,0,0,0-.41-.21.45.45,0,0,0-.27,0,.84.84,0,0,0-.24.07c-.15.06-.28.13-.42.2a3.29,3.29,0,0,1-.39.17l-.09,0H74l-.09,0c-.26-.11-.52-.26-.78-.4l-.78-.44-.2-.12L72,34.46l-.15,0a1.88,1.88,0,0,0-.53,0,7.11,7.11,0,0,0-.94.19c-.3.09-.59.18-.88.29Z"/></g></g></svg>