<svg xmlns="http://www.w3.org/2000/svg" viewBox="0 0 71.79 107.86"><defs><style>.cls-1{fill:#172a48;}</style></defs><g id="Layer_2" data-name="Layer 2"><g id="Layer_1-2" data-name="Layer 1"><path class="cls-1" d="M27,107.64a2.47,2.47,0,0,0,3.26-1.24l0,0c.58-1.34,1.12-2.66,1.64-4s1-2.67,1.52-4,1-2.84,1.45-4.28.81-2.63,1.17-4,.73-2.85,1-4.36c.14-.75.26-1.52.35-2.32a19.11,19.11,0,0,0,.13-2.58,10.73,10.73,0,0,0-.14-1.51,7.35,7.35,0,0,0-.53-1.85c0-.1-.09-.19-.13-.28l-.07-.13-.08-.14-.17-.28,0-.06,0,0,0-.07-.4-.55-.11-.13-.12-.15-.24-.28-.12-.14-.13-.15-.29-.29c-.1-.09-.19-.19-.3-.28l-.34-.29-.16-.13L34,74l-.34-.24c-.43-.27-.71-.42-.81-.48l-.06,0-.06,0s-.07-.05-.13-.12a1.81,1.81,0,0,1-.17-.19l-.1-.13,0-.06,0,0,0,0c-.14-.22-.29-.41-.43-.68l-.22-.37c-.08-.13-.15-.27-.22-.41s-.29-.54-.43-.84l-.41-.87A10.42,10.42,0,0,1,29.92,68a5.47,5.47,0,0,1-.21-1.33,4.32,4.32,0,0,1,.15-1.27,7.62,7.62,0,0,1,.56-1.47c.26-.54.58-1.13.93-1.77s.7-1.35,1-2.12A14.56,14.56,0,0,0,33,58.18l.4-.54c.27-.37.55-.73.84-1.1.56-.72,1.14-1.44,1.73-2.13s1.19-1.37,1.8-2c.31-.32.62-.62.94-.9a8.22,8.22,0,0,1,.9-.7l0,0,.05,0,.09-.06.07,0,.06,0,0,0h.28l.25,0,.27.06.28.08a18,18,0,0,1,2.41,1,49.83,49.83,0,0,1,4.76,2.77c.76.51,1.53,1,2.25,1.59l.51.41.29.25a1.73,1.73,0,0,0,.21.17l.23.13a3.18,3.18,0,0,0,.93.31,4.39,4.39,0,0,0,.88,0,6.68,6.68,0,0,0,3-1,7.5,7.5,0,0,0,1.24-.94,5.21,5.21,0,0,0,1-1.25,3.9,3.9,0,0,0,.19-.35l.15-.38c.09-.27.13-.5.19-.74a12.13,12.13,0,0,0,.23-1.45l0-.35,0-.17,0-.17a2.87,2.87,0,0,1,0-.31,1.87,1.87,0,0,1,.08-.28,1.47,1.47,0,0,1,.3-.49l.28-.27a1.56,1.56,0,0,1,.2-.16l.27-.2.29-.19a3.74,3.74,0,0,1,.58-.33,2.18,2.18,0,0,1,1.25-.21c.22,0,.44.1.69.15a1.7,1.7,0,0,0,.39,0,1,1,0,0,0,.39-.11,2,2,0,0,0,.59-.45,4.79,4.79,0,0,0,.46-.55.05.05,0,0,0,0-.08.06.06,0,0,0-.09,0,5.79,5.79,0,0,1-.48.51,2,2,0,0,1-.56.36,1,1,0,0,1-.63,0c-.22-.06-.44-.15-.68-.2a2.35,2.35,0,0,0-.75,0,2.6,2.6,0,0,0-.73.18,4,4,0,0,0-.66.31l-.31.17-.31.19a5.2,5.2,0,0,0-.59.46.93.93,0,0,0-.13.15s-.09.09-.13.15l-.11.16a1.51,1.51,0,0,0-.09.18,1.66,1.66,0,0,0-.14.37c0,.12-.07.24-.09.36s-.08.48-.13.7a12,12,0,0,1-.31,1.35c-.07.21-.13.44-.21.63a2.59,2.59,0,0,1-.14.29c-.06.09-.1.19-.17.28a5.11,5.11,0,0,1-2,1.68,6.78,6.78,0,0,1-1.23.47,5,5,0,0,1-1.26.16,2.17,2.17,0,0,1-1.09-.27l-.1-.07a.24.24,0,0,1-.09-.08l0,0,0,0,0,0L52,55.49a6.51,6.51,0,0,0-.54-.51c-.72-.64-1.46-1.23-2.22-1.82a52,52,0,0,0-4.74-3.23,19.16,19.16,0,0,0-2.64-1.33l-.36-.14-.38-.12-.41-.1-.21,0-.11,0h-.12l-.24,0a1.24,1.24,0,0,0-.27,0,2.35,2.35,0,0,0-.53.09l-.23.07-.22.09c-.13.06-.27.12-.39.19a9.1,9.1,0,0,0-1.32.86c-.4.3-.78.62-1.14.94-.74.65-1.43,1.32-2.1,2l-.36.38h0c0-.2,0-.41-.05-.62s0-.4,0-.62l-.1-.64c0-.21-.09-.44-.13-.65L33,49.92c0-.1-.06-.21-.1-.32s-.13-.43-.21-.64l-.26-.62-.07-.15L32.33,48l-.15-.29a11.55,11.55,0,0,0-.64-1.09c-.11-.17-.23-.33-.34-.49a5.92,5.92,0,0,0-.35-.48C29.92,44.46,29,43.42,28,42.37l-.69-.77a3.51,3.51,0,0,1-.4-.53,2.69,2.69,0,0,1-.31-.61,3.59,3.59,0,0,1-.21-.68,8,8,0,0,1,.11-3.34,19,19,0,0,1,1.2-3.62,36.12,36.12,0,0,1,1.81-3.56c.66-1.17,1.39-2.32,2.15-3.45l1.16-1.69.61-.83.14-.2.14-.18.13-.17.14-.15a3.21,3.21,0,0,1,2.73-1.19,6.85,6.85,0,0,1,.88.08c.31.06.62.11,1,.19.63.15,1.29.34,2,.53a25.1,25.1,0,0,0,4.24.9l1.06.09.49,0,.48.06a15,15,0,0,1,1.94.44c.64.18,1.29.4,2,.62s1.33.46,2,.64a9,9,0,0,0,2.22.33,5.9,5.9,0,0,0,2.24-.42l.34-.15a8,8,0,0,0,1.58-1l.21-.16.19-.16c.13-.11.27-.2.41-.3a6,6,0,0,1,.83-.52,2.34,2.34,0,0,1,.83-.26,1.26,1.26,0,0,1,.38.06,1.89,1.89,0,0,1,.39.21,8.2,8.2,0,0,0,.92.58,2.62,2.62,0,0,0,1.13.25,3.94,3.94,0,0,0,1.09-.17l.26-.07.26-.09.49-.2,1-.43c.31-.16.63-.3.94-.47a18.18,18.18,0,0,0,1.82-1,8.37,8.37,0,0,0,.85-.62,4.14,4.14,0,0,0,.38-.35,1.87,1.87,0,0,0,.32-.42.06.06,0,0,0,0-.08.05.05,0,0,0-.08,0v0l-.06.08-.08.08-.18.18a4.17,4.17,0,0,1-.4.3,7,7,0,0,1-.87.53,19.8,19.8,0,0,1-1.86.88c-.31.14-.64.26-.95.39l-1,.36a4.87,4.87,0,0,1-1.86.34,1.86,1.86,0,0,1-.78-.23,6.72,6.72,0,0,1-.77-.58,3,3,0,0,0-.56-.33,2,2,0,0,0-.73-.16,3,3,0,0,0-1.26.29,8.75,8.75,0,0,0-1,.54l-.46.3-.22.16-.11.08-.1.07a6.22,6.22,0,0,1-1.66.85,4.65,4.65,0,0,1-1.77.24,7.66,7.66,0,0,1-1.83-.38c-1.25-.4-2.52-1-3.89-1.46a16.73,16.73,0,0,0-2.13-.59l-.54-.1-.56-.08-1-.13a23.51,23.51,0,0,1-3.87-1c-.66-.21-1.32-.44-2-.63-.28-.08-.56-.16-.86-.22l-.22-.05c.37-.16.72-.34,1.07-.53s1-.56,1.44-.86c.94-.59,1.87-1.22,2.75-1.9a26.52,26.52,0,0,0,2.54-2.2,18.58,18.58,0,0,0,2.19-2.57,12.36,12.36,0,0,0,1.54-3l0-.08c.09-.28.18-.55.25-.83L50,7l.09-.4c.11-.54.23-1.07.37-1.6a9.75,9.75,0,0,1,.48-1.5,2.44,2.44,0,0,1,.36-.59,1.88,1.88,0,0,1,.51-.41,5.83,5.83,0,0,1,.71-.29l.77-.28c.26-.09.53-.18.79-.29l.18-.07.18-.06.35-.08a2.66,2.66,0,0,1,.69,0,2.38,2.38,0,0,1,.66.2,11.34,11.34,0,0,1,1.33.86,5.16,5.16,0,0,0,.81.42,2.83,2.83,0,0,0,.95.2A3.9,3.9,0,0,0,61,2.61c1-.45,2-.87,3-1.25.51-.19,1-.37,1.55-.53L66.32.6,66.7.51l.36-.07h0a.23.23,0,0,0,.19-.25A.23.23,0,0,0,67,0,11,11,0,0,0,65.4.37c-.53.15-1.06.32-1.58.5-1,.35-2.07.76-3.09,1.19a3.28,3.28,0,0,1-1.52.32,2.74,2.74,0,0,1-1.4-.56,11.76,11.76,0,0,0-1.4-.94A3.23,3.23,0,0,0,55.53.6a3.54,3.54,0,0,0-.92,0l-.44.1L54,.78l-.2.07L53,1.11l-.79.26a6,6,0,0,0-.82.32,2.6,2.6,0,0,0-.78.59,3.09,3.09,0,0,0-.52.81,10.55,10.55,0,0,0-.57,1.63q-.22.81-.42,1.62l-.1.4c0,.14-.06.26-.09.38s-.16.5-.25.74a10.88,10.88,0,0,1-1.52,2.72A16.26,16.26,0,0,1,45,12.93a24,24,0,0,1-2.48,2,31.93,31.93,0,0,1-2.7,1.75l-.7.4c-.23.13-.46.26-.7.38a11,11,0,0,1-1.37.62c-.22.08-.45.14-.68.2s-.49.11-.77.16a13.69,13.69,0,0,0-1.72.46l-.11,0-.05,0h-.07l-.15.06-.15.07a4.7,4.7,0,0,0-.5.29,6.45,6.45,0,0,0-.78.66,11.73,11.73,0,0,0-1.2,1.38A30.3,30.3,0,0,0,29,24.33c-.28.49-.56,1-.82,1.49-.14.25-.27.5-.4.75l-.38.77a1.21,1.21,0,0,0-.09.35,1,1,0,0,1-.08.14c-.53.85-1,1.71-1.5,2.61l0-.15c0-.28-.11-.56-.17-.84s-.08-.28-.12-.42-.09-.28-.14-.42a12.44,12.44,0,0,0-1.63-2.91c-.31-.43-.62-.85-.9-1.27a4.93,4.93,0,0,1-.65-1.27c0-.11,0-.21-.07-.32s0-.1,0-.15v-.16a3.32,3.32,0,0,1,.11-.68,6.23,6.23,0,0,1,.59-1.36,9.74,9.74,0,0,1,.87-1.26,6,6,0,0,1,1.09-1.05A1,1,0,0,1,25,18a2,2,0,0,1,.35-.09,6.29,6.29,0,0,1,.77,0,1.91,1.91,0,0,0,.81-.18,2.85,2.85,0,0,0,.67-.46.06.06,0,0,0,0-.09.06.06,0,0,0-.08,0h0a2.33,2.33,0,0,1-.67.37,1.77,1.77,0,0,1-.73.1,2.67,2.67,0,0,0-1.65.2,6.15,6.15,0,0,0-1.28,1,9.09,9.09,0,0,0-1.06,1.25,7,7,0,0,0-.81,1.48,4,4,0,0,0-.22.87,1.94,1.94,0,0,0,0,.24,1.92,1.92,0,0,0,0,.24c0,.16,0,.32.06.47A5.88,5.88,0,0,0,21.72,25c.26.49.54.94.8,1.39a11.17,11.17,0,0,1,1.2,2.69c0,.11.05.23.07.34s.05.22.07.34.06.47.07.71l0,.37v.37c0,.25,0,.5,0,.75,0,1-.11,2-.22,3.06l0,.24c0,.14-.08.28-.11.41A13.92,13.92,0,0,0,23.21,38a11.43,11.43,0,0,0,0,1.17q0,.6.12,1.2a7.42,7.42,0,0,0,.82,2.34,7.32,7.32,0,0,0,.72,1l.67.8c.89,1.06,1.78,2.11,2.55,3.18.1.13.19.27.28.4s.18.27.26.41a9.21,9.21,0,0,1,.45.81l.1.2.05.11a.42.42,0,0,1,0,.1l.17.42c.05.14.08.28.12.42s0,.15.07.22l0,.22a10,10,0,0,1,.19,1.85c0,.64,0,1.3-.08,2l-.05.51,0,.25,0,.23,0,.23-.08.45a1.74,1.74,0,0,1-.05.22,9.72,9.72,0,0,1-.6,1.77,16.27,16.27,0,0,1-.9,1.76c-.33.59-.69,1.2-1,1.86l-.16.32-.28-.55c-.09-.17-.18-.34-.28-.5a21.48,21.48,0,0,0-2.49-3.49,19.83,19.83,0,0,0-1.51-1.53A12,12,0,0,0,20.54,55a6.2,6.2,0,0,0-1-.49l-.26-.1-.26-.08-.27-.05-.26,0c-.71-.09-1.43-.14-2.13-.25a8.45,8.45,0,0,1-2-.56,8.89,8.89,0,0,1-1.83-1.08l-.25-.2a16.25,16.25,0,0,1-2.62-2.93c-.41-.57-.81-1.17-1.22-1.76l-.62-.87-.63-.86C6.77,45.18,6.35,44.61,6,44c-.21-.29-.39-.6-.58-.9a10.56,10.56,0,0,1-.48-.95,7.41,7.41,0,0,1-.37-1,9.15,9.15,0,0,1-.22-1l0-.26,0-.13v-.14l0-.53c0-.17,0-.35,0-.53V38L4.26,37l.11-1.06a9.73,9.73,0,0,1,.43-2.08c0-.08.06-.16.09-.25L5,33.32a3.37,3.37,0,0,1,.25-.46,3,3,0,0,1,.68-.79,3.28,3.28,0,0,1,.9-.53c.33-.14.67-.24,1-.35a7.79,7.79,0,0,0,2-.79,5,5,0,0,0,.83-.69l.18-.21.09-.1.08-.11.16-.22.14-.23c.36-.63.63-1.28,1-1.89.17-.32.36-.61.55-.92.09-.15.2-.29.3-.44l.15-.22.16-.21a12.56,12.56,0,0,1,1.38-1.62c.12-.13.26-.25.38-.37l.41-.35a6.31,6.31,0,0,1,.86-.6.07.07,0,0,0-.06-.12h0a8.26,8.26,0,0,0-1.83,1.2A13.43,13.43,0,0,0,13,24.83l-.18.21-.18.22c-.11.14-.23.28-.34.43s-.44.59-.64.9l-.31.46-.29.48-.14.24-.14.22c-.09.13-.17.27-.26.39l-.14.19-.15.16-.07.09-.08.07L10,29a3.44,3.44,0,0,1-.68.47A7.24,7.24,0,0,1,7.5,30a9.86,9.86,0,0,0-1.16.32A5,5,0,0,0,5.08,31a4.53,4.53,0,0,0-1,1.08,4.31,4.31,0,0,0-.37.61c-.06.1-.1.2-.15.3l-.13.31a11.76,11.76,0,0,0-.63,2.37l-.17,1.12c0,.38-.09.76-.13,1.14l0,.6a5.91,5.91,0,0,0,0,.6l0,.62v.15l0,.16,0,.32a9.94,9.94,0,0,0,.22,1.29A9.27,9.27,0,0,0,3.13,43a11.16,11.16,0,0,0,.54,1.16c.19.35.39.72.6,1l.31.49.3.46.61.9.58.88.57.88.55.87.14.22.16.25.32.48c.2.33.45.65.68,1,.12.16.23.32.36.48l.39.47A14.87,14.87,0,0,0,11,54.23a.27.27,0,0,0,.08.07,10.69,10.69,0,0,0,1.56,1.06q.39.21.78.39a11,11,0,0,0,2.62.78c.83.15,1.58.22,2.2.32l.12,0h.11l.06,0,.1,0a4.18,4.18,0,0,1,.55.31,9.61,9.61,0,0,1,1.29,1,16.07,16.07,0,0,1,1.26,1.34,19,19,0,0,1,2.12,3.06,12.27,12.27,0,0,1,.76,1.61,7.56,7.56,0,0,1,.44,1.5A.88.88,0,0,0,25,66l0,.22.09.64.06.32.07.33c0,.21.09.42.14.63a15.48,15.48,0,0,0,.86,2.48,14.26,14.26,0,0,0,1.09,2,3.14,3.14,0,0,0,.18.37c.08.17.15.33.24.49l.26.48c.17.33.38.65.57,1l.34.48a5.58,5.58,0,0,0,.38.47,6.33,6.33,0,0,0,.44.46l.25.21.25.19c.35.25.66.43.91.59l.17.12.08.06.08.07.16.13.15.15L32,78c.05,0,.09.11.14.17l.15.17.14.18.27.39.06.09,0,.06s0,.1.07.14a3.39,3.39,0,0,1,.2.75,6.48,6.48,0,0,1,.06.9A12.94,12.94,0,0,1,33,82.8q-.12,1-.33,2c-.27,1.33-.61,2.66-1,4C30.89,91.39,30,94,29,96.59s-2,5.15-3.15,7.67l-.05.11A2.47,2.47,0,0,0,27,107.64Z"/><path class="cls-1" d="M21.68,40.06a.66.66,0,0,0,.34-.87.67.67,0,0,0-.87-.34c-.33.15-.76,1.06-.76,1.06A3,3,0,0,0,21.68,40.06Z"/><path class="cls-1" d="M22.17,37.69a.54.54,0,1,0,1,.3,2.45,2.45,0,0,0-.27-1S22.25,37.4,22.17,37.69Z"/><path class="cls-1" d="M20.33,38.4a.59.59,0,0,0,.28-1.15,2.73,2.73,0,0,0-1.11.34S20,38.32,20.33,38.4Z"/><path class="cls-1" d="M21.63,36.24a.39.39,0,0,0,.09.55.4.4,0,0,0,.55-.1,1.84,1.84,0,0,0,.06-.77S21.75,36.06,21.63,36.24Z"/><path class="cls-1" d="M21.12,35.16a.39.39,0,1,0,.78.07c0-.22-.33-.7-.33-.7S21.14,34.94,21.12,35.16Z"/><path class="cls-1" d="M19.62,34.37a.31.31,0,0,0,.38.19.31.31,0,0,0,.19-.38c-.05-.15-.44-.39-.44-.39A1.38,1.38,0,0,0,19.62,34.37Z"/><path class="cls-1" d="M19.14,33.61a.19.19,0,0,0,.13.23.19.19,0,0,0,.23-.13c0-.09-.09-.35-.09-.35S19.17,33.51,19.14,33.61Z"/><path class="cls-1" d="M18.69,33.26a.21.21,0,0,0,.25.16.2.2,0,0,0,.16-.25c0-.12-.28-.31-.28-.31S18.66,33.14,18.69,33.26Z"/><path class="cls-1" d="M20.14,36.54a.49.49,0,0,0,.23-1c-.26-.06-.93.29-.93.29S19.88,36.48,20.14,36.54Z"/><path class="cls-1" d="M19.24,35.4a.32.32,0,0,0,.27-.39.33.33,0,0,0-.39-.27c-.19,0-.51.43-.51.43S19.06,35.44,19.24,35.4Z"/><path class="cls-1" d="M18.56,34.26a.27.27,0,0,0,.34-.14.27.27,0,0,0-.14-.34c-.14-.06-.51.07-.51.07S18.43,34.2,18.56,34.26Z"/><path class="cls-1" d="M24,39.27c-.31-.14-.64-.3-1-.47a7.43,7.43,0,0,1-.86-.55,2,2,0,0,1-.33-.31l0-.07,0-.08-.07-.26c-.1-.36-.19-.71-.3-1.06a11,11,0,0,0-.36-1.06.59.59,0,0,0-.06-.14.61.61,0,0,0-.12-.16l-.06-.06-.07,0-.14-.08a4.48,4.48,0,0,0-.53-.21l-.51-.17a.82.82,0,0,1-.21-.11s-.08-.11-.12-.18a5,5,0,0,1-.27-1h-.12a5.14,5.14,0,0,0,.06.55,4,4,0,0,0,.13.55.58.58,0,0,0,.16.28,1,1,0,0,0,.26.17c.17.09.34.16.51.23a2.82,2.82,0,0,1,.46.23l.1.06,0,0,0,0,0,0s0,0,0,0,0,.07,0,.11c.1.33.17.69.25,1s.13.71.2,1.07l0,.27.05.19.09.17a2.53,2.53,0,0,0,.41.49,6.85,6.85,0,0,0,.92.71c.31.21.62.4,1,.59Z"/><path class="cls-1" d="M6.32,50.86A.66.66,0,0,0,6.13,50a.65.65,0,0,0-.91.19,3,3,0,0,0-.07,1.29S6.11,51.17,6.32,50.86Z"/><path class="cls-1" d="M5.44,48.6a.53.53,0,0,0,.67.36.53.53,0,0,0,.36-.67c-.09-.28-.78-.72-.78-.72S5.35,48.32,5.44,48.6Z"/><path class="cls-1" d="M4.28,50.2a.59.59,0,1,0-.39-1.11c-.31.11-.75.89-.75.89A2.64,2.64,0,0,0,4.28,50.2Z"/><path class="cls-1" d="M4.19,47.68a.4.4,0,1,0,.79,0c0-.22-.37-.68-.37-.68S4.2,47.47,4.19,47.68Z"/><path class="cls-1" d="M3.18,47.05a.39.39,0,0,0,.53.17.4.4,0,0,0,.17-.53c-.11-.2-.67-.41-.67-.41A1.81,1.81,0,0,0,3.18,47.05Z"/><path class="cls-1" d="M1.49,47.2a.3.3,0,0,0,.38-.46c-.13-.11-.58-.09-.58-.09S1.37,47.1,1.49,47.2Z"/><path class="cls-1" d="M.68,46.82a.19.19,0,0,0,.36-.1c0-.1-.27-.25-.27-.25S.65,46.72.68,46.82Z"/><path class="cls-1" d="M.11,46.78a.22.22,0,0,0,.3,0,.23.23,0,0,0,0-.31,1,1,0,0,0-.41-.1A.92.92,0,0,0,.11,46.78Z"/><path class="cls-1" d="M3.11,48.74a.49.49,0,1,0-.33-.92c-.25.09-.62.74-.62.74A2.23,2.23,0,0,0,3.11,48.74Z"/><path class="cls-1" d="M1.74,48.28a.34.34,0,0,0,0-.48.34.34,0,0,0-.48,0,1.69,1.69,0,0,0-.19.65A1.56,1.56,0,0,0,1.74,48.28Z"/><path class="cls-1" d="M.54,47.69a.26.26,0,0,0,.21-.31.25.25,0,0,0-.3-.2c-.14,0-.39.33-.39.33A1.26,1.26,0,0,0,.54,47.69Z"/><path class="cls-1" d="M7.84,48.94c-.34.05-.7.09-1,.12a7.08,7.08,0,0,1-1,0A1.43,1.43,0,0,1,5.32,49l-.07,0-.06,0L5,48.71c-.27-.25-.55-.49-.83-.73s-.55-.47-.87-.7l-.13-.08L3,47.13H2.63a3.27,3.27,0,0,0-.56.12l-.52.13-.23,0a.43.43,0,0,1-.2-.09,4.47,4.47,0,0,1-.79-.72l-.1.08c.12.15.23.29.36.43a3.71,3.71,0,0,0,.4.39.57.57,0,0,0,.29.15,1.07,1.07,0,0,0,.31,0c.19,0,.37-.06.55-.09l.52-.06H2.9l0,0,.09.08c.27.22.52.48.78.73l.75.79.18.2a.92.92,0,0,0,.14.13l.17.1a2.35,2.35,0,0,0,.61.19,7.78,7.78,0,0,0,1.15.1c.38,0,.75,0,1.14,0Z"/><path class="cls-1" d="M3.06,30.86a.66.66,0,0,0,.83-.41.65.65,0,0,0-.41-.84c-.34-.12-1.27.26-1.27.26S2.71,30.74,3.06,30.86Z"/><path class="cls-1" d="M5,29.44a.55.55,0,0,0-.18.74.53.53,0,0,0,.74.18c.26-.15.5-.94.5-.94A2.52,2.52,0,0,0,5,29.44Z"/><path class="cls-1" d="M3.19,28.72a.58.58,0,0,0,.81.16.59.59,0,0,0,.16-.82c-.18-.27-1-.5-1-.5A2.7,2.7,0,0,0,3.19,28.72Z"/><path class="cls-1" d="M5.6,28a.4.4,0,0,0-.3.47.4.4,0,0,0,.47.3c.21-.05.57-.53.57-.53A1.92,1.92,0,0,0,5.6,28Z"/><path class="cls-1" d="M6,26.87a.39.39,0,0,0,0,.55.41.41,0,0,0,.56,0,1.84,1.84,0,0,0,.23-.75A1.78,1.78,0,0,0,6,26.87Z"/><path class="cls-1" d="M5.39,25.27a.29.29,0,0,0,.15.39.29.29,0,0,0,.39-.15c.07-.14-.06-.58-.06-.58S5.46,25.12,5.39,25.27Z"/><path class="cls-1" d="M5.55,24.39a.19.19,0,0,0-.06.25.19.19,0,0,0,.26.07,1,1,0,0,0,.17-.33S5.64,24.33,5.55,24.39Z"/><path class="cls-1" d="M5.45,23.82a.21.21,0,0,0,.08.29A.21.21,0,0,0,5.82,24a1,1,0,0,0,0-.42S5.51,23.72,5.45,23.82Z"/><path class="cls-1" d="M4.3,27.22a.49.49,0,0,0,.69.13.49.49,0,0,0,.13-.68c-.15-.22-.87-.42-.87-.42A2.23,2.23,0,0,0,4.3,27.22Z"/><path class="cls-1" d="M4.41,25.78a.34.34,0,0,0,.36-.58,1.54,1.54,0,0,0-.67,0S4.25,25.68,4.41,25.78Z"/><path class="cls-1" d="M4.68,24.47A.27.27,0,0,0,5,24.6a.26.26,0,0,0,.12-.35c-.06-.13-.42-.29-.42-.29A1.18,1.18,0,0,0,4.68,24.47Z"/><path class="cls-1" d="M5.3,31.85c-.13-.31-.26-.65-.37-1a6.47,6.47,0,0,1-.27-1,1.79,1.79,0,0,1,0-.45s0-.06,0-.08a.26.26,0,0,1,0-.07L4.81,29c.17-.32.33-.65.49-1s.32-.66.46-1a.83.83,0,0,0,0-.15.63.63,0,0,0,0-.19v-.09l0-.08c0-.06,0-.11,0-.16a4.85,4.85,0,0,0-.26-.51c-.09-.16-.18-.32-.25-.47a1.71,1.71,0,0,1-.09-.22.49.49,0,0,1,0-.22A5.32,5.32,0,0,1,5.7,24l-.1-.08c-.12.15-.22.3-.33.45a4.76,4.76,0,0,0-.28.49.76.76,0,0,0-.07.32.88.88,0,0,0,.08.3c.07.18.15.35.22.51a3.78,3.78,0,0,1,.19.49.43.43,0,0,1,0,.11v.1a.06.06,0,0,1,0,0s0,0,0,0a.37.37,0,0,1,0,.11,8.8,8.8,0,0,1-.52.94c-.18.31-.38.61-.57.92L4.13,29,4,29.12a1.8,1.8,0,0,0,0,.19A2.35,2.35,0,0,0,4,30a8.22,8.22,0,0,0,.19,1.14,11.21,11.21,0,0,0,.32,1.09Z"/><path class="cls-1" d="M44.43,11.27a.66.66,0,0,0,.75-.55.67.67,0,0,0-.56-.75c-.36-.05-1.2.49-1.2.49S44.07,11.22,44.43,11.27Z"/><path class="cls-1" d="M46.11,9.53a.54.54,0,1,0,.72.8c.22-.2.32-1,.32-1S46.33,9.33,46.11,9.53Z"/><path class="cls-1" d="M44.17,9.15A.59.59,0,0,0,45,8.33C44.78,8.09,43.89,8,43.89,8S43.94,8.92,44.17,9.15Z"/><path class="cls-1" d="M46.42,8a.39.39,0,0,0,.3.72c.2-.08.47-.62.47-.62S46.62,7.92,46.42,8Z"/><path class="cls-1" d="M46.56,6.82a.4.4,0,1,0,.63.48,1.8,1.8,0,0,0,.09-.77S46.69,6.65,46.56,6.82Z"/><path class="cls-1" d="M45.71,5.36a.3.3,0,1,0,.58.14c0-.16-.17-.56-.17-.56S45.75,5.2,45.71,5.36Z"/><path class="cls-1" d="M45.71,4.46a.19.19,0,0,0,0,.26.19.19,0,0,0,.27,0,1,1,0,0,0,.11-.35A.82.82,0,0,0,45.71,4.46Z"/><path class="cls-1" d="M45.51,3.92a.21.21,0,0,0,.13.27.21.21,0,0,0,.27-.12,1,1,0,0,0-.08-.42S45.55,3.81,45.51,3.92Z"/><path class="cls-1" d="M45,7.47a.49.49,0,1,0,.7-.68c-.19-.2-.94-.26-.94-.26S44.81,7.28,45,7.47Z"/><path class="cls-1" d="M44.84,6a.33.33,0,0,0,.44-.19.34.34,0,0,0-.19-.44,1.54,1.54,0,0,0-.66.1S44.66,6,44.84,6Z"/><path class="cls-1" d="M44.87,4.7a.26.26,0,0,0,.42-.3c-.08-.12-.47-.21-.47-.21A1.26,1.26,0,0,0,44.87,4.7Z"/><path class="cls-1" d="M46.82,11.84c-.19-.28-.38-.59-.55-.89a6.62,6.62,0,0,1-.44-.94,1.6,1.6,0,0,1-.11-.43V9.5s0,0,0-.08l.08-.26c.11-.36.21-.71.31-1.06s.19-.71.26-1.09c0,0,0-.1,0-.15a1.34,1.34,0,0,0,0-.2l0-.09,0-.07a.91.91,0,0,0-.07-.14,3.46,3.46,0,0,0-.35-.46c-.11-.15-.23-.28-.33-.42a1,1,0,0,1-.13-.2.54.54,0,0,1,0-.22,5.47,5.47,0,0,1,.32-1l-.11,0a4.59,4.59,0,0,0-.24.5,3,3,0,0,0-.18.53.7.7,0,0,0,0,.33,1.2,1.2,0,0,0,.13.28c.1.16.21.31.31.46a2.69,2.69,0,0,1,.28.44s0,.07,0,.11l0,.05v0s0,0,0,0,0,0,0,0a.53.53,0,0,1,0,.12,8.57,8.57,0,0,1-.34,1c-.12.34-.26.68-.39,1l-.11.26a.84.84,0,0,0,0,.18,1.48,1.48,0,0,0,0,.19,3.09,3.09,0,0,0,.09.64,8.61,8.61,0,0,0,.4,1.08c.16.35.32.68.51,1Z"/><path class="cls-1" d="M50.82,3.67a.32.32,0,0,0,.18.41.32.32,0,0,0,.41-.19,1.44,1.44,0,0,0-.11-.61S50.88,3.51,50.82,3.67Z"/><path class="cls-1" d="M51.47,4.62a.26.26,0,1,0-.44.26c.07.12.44.25.44.25A1.21,1.21,0,0,0,51.47,4.62Z"/><path class="cls-1" d="M51.83,3.76a.29.29,0,0,0-.08.39.27.27,0,0,0,.38.08c.13-.08.25-.49.25-.49A1.31,1.31,0,0,0,51.83,3.76Z"/><path class="cls-1" d="M52.15,4.92a.18.18,0,0,0-.22-.15.19.19,0,0,0-.15.22c0,.1.24.27.24.27S52.17,5,52.15,4.92Z"/><path class="cls-1" d="M52.68,5.1a.18.18,0,1,0-.28.24c.07.08.35.12.35.12S52.75,5.17,52.68,5.1Z"/><path class="cls-1" d="M53.45,4.85a.14.14,0,0,0-.13.25c.07,0,.28,0,.28,0S53.52,4.88,53.45,4.85Z"/><path class="cls-1" d="M53.86,4.93a.09.09,0,0,0-.12,0,.09.09,0,0,0,0,.12s.15.09.15.09S53.89,5,53.86,4.93Z"/><path class="cls-1" d="M54.13,4.89a.09.09,0,0,0-.13,0,.1.1,0,0,0,0,.14.65.65,0,0,0,.2,0S54.18,4.92,54.13,4.89Z"/><path class="cls-1" d="M52.53,4.31a.23.23,0,0,0,.25.39c.11-.07.21-.41.21-.41A1.06,1.06,0,0,0,52.53,4.31Z"/><path class="cls-1" d="M53.22,4.37a.17.17,0,0,0,0,.23.16.16,0,0,0,.23,0c0-.07,0-.31,0-.31S53.27,4.3,53.22,4.37Z"/><path class="cls-1" d="M53.83,4.52a.12.12,0,1,0,.1.22c.07,0,.15-.19.15-.19A.54.54,0,0,0,53.83,4.52Z"/><path class="cls-1" d="M50.32,4.73l.47-.17a2.77,2.77,0,0,1,.48-.11.77.77,0,0,1,.21,0h.08l.11.07.46.24c.16.08.31.16.48.23l.07,0h.18l.07,0a1.92,1.92,0,0,0,.25-.12l.22-.11.11,0s.06,0,.1,0a2.16,2.16,0,0,1,.44.25l0,0-.21-.16-.23-.14a.54.54,0,0,0-.15,0l-.14,0-.25.1-.23.08h-.14l-.05,0a5.06,5.06,0,0,1-.44-.26l-.43-.28-.11-.07-.08,0-.08,0a1.72,1.72,0,0,0-.31,0,4.68,4.68,0,0,0-1.06.22Z"/><path class="cls-1" d="M45.33,23.58a.66.66,0,1,0-.61,1.17,3,3,0,0,0,1.3-.06S45.65,23.75,45.33,23.58Z"/><path class="cls-1" d="M43.17,24.68a.54.54,0,0,0,.29-.71.54.54,0,0,0-.7-.29c-.28.12-.64.85-.64.85A2.5,2.5,0,0,0,43.17,24.68Z"/><path class="cls-1" d="M44.88,25.67a.6.6,0,0,0-.79-.28.59.59,0,0,0-.28.78c.14.3,1,.66,1,.66A2.8,2.8,0,0,0,44.88,25.67Z"/><path class="cls-1" d="M42.38,26a.39.39,0,1,0-.05-.78c-.22,0-.64.43-.64.43S42.16,26,42.38,26Z"/><path class="cls-1" d="M41.86,27.08a.4.4,0,0,0-.44-.66,1.87,1.87,0,0,0-.34.7A1.8,1.8,0,0,0,41.86,27.08Z"/><path class="cls-1" d="M42.17,28.74a.3.3,0,0,0-.5-.32,1.33,1.33,0,0,0,0,.58S42.08,28.88,42.17,28.74Z"/><path class="cls-1" d="M41.87,29.59a.18.18,0,0,0,.11-.24.19.19,0,0,0-.25-.1c-.09,0-.22.29-.22.29S41.78,29.63,41.87,29.59Z"/><path class="cls-1" d="M41.89,30.17a.22.22,0,0,0,0-.3.21.21,0,0,0-.3,0c-.08.09-.07.41-.07.41A1,1,0,0,0,41.89,30.17Z"/><path class="cls-1" d="M43.54,27a.49.49,0,0,0-.89.42c.12.25.8.55.8.55A2.17,2.17,0,0,0,43.54,27Z"/><path class="cls-1" d="M43.22,28.39a.34.34,0,0,0-.45.52,1.58,1.58,0,0,0,.66.12A1.6,1.6,0,0,0,43.22,28.39Z"/><path class="cls-1" d="M42.75,29.64a.26.26,0,0,0-.32-.17.26.26,0,0,0-.18.32c0,.13.37.35.37.35S42.79,29.78,42.75,29.64Z"/><path class="cls-1" d="M43.26,22.25c.09.34.17.69.23,1a6.19,6.19,0,0,1,.1,1,1.57,1.57,0,0,1,0,.45.64.64,0,0,1,0,.07l-.05.07-.16.22-.64.9a10.86,10.86,0,0,0-.61.94L42,27.1a1.06,1.06,0,0,0-.06.19v.17l0,.16a2.84,2.84,0,0,0,.17.54c.06.18.13.35.18.51s0,.16.05.23a.57.57,0,0,1-.07.21,5.64,5.64,0,0,1-.64.86l.09.08.39-.39a5.2,5.2,0,0,0,.35-.44.67.67,0,0,0,.12-.31,1.39,1.39,0,0,0,0-.3c0-.19-.1-.37-.14-.54a2.6,2.6,0,0,1-.11-.51.49.49,0,0,1,0-.12v-.1s0,0,0,0,0,0,0,0l.06-.1a10.11,10.11,0,0,1,.66-.84c.23-.28.47-.55.71-.83l.18-.2.11-.15a.91.91,0,0,0,.08-.18,2.21,2.21,0,0,0,.13-.63,7.45,7.45,0,0,0,0-1.16,11.05,11.05,0,0,0-.14-1.12Z"/><path class="cls-1" d="M54.28,56.37a.44.44,0,0,0,0,.62.43.43,0,0,0,.61,0c.18-.16.24-.82.24-.82A2.08,2.08,0,0,0,54.28,56.37Z"/><path class="cls-1" d="M54.52,58a.37.37,0,0,0-.38-.33.36.36,0,0,0-.33.38c0,.2.39.58.39.58S54.53,58.15,54.52,58Z"/><path class="cls-1" d="M55.49,57.1a.39.39,0,0,0-.34.43.4.4,0,0,0,.43.34c.22,0,.61-.46.61-.46S55.71,57.07,55.49,57.1Z"/><path class="cls-1" d="M55.18,58.73a.26.26,0,0,0-.18-.32.26.26,0,0,0-.32.18c0,.14.14.5.14.5S55.15,58.87,55.18,58.73Z"/><path class="cls-1" d="M55.74,59.28a.26.26,0,0,0-.32-.18.25.25,0,0,0-.18.32c0,.13.36.35.36.35S55.78,59.42,55.74,59.28Z"/><path class="cls-1" d="M56.85,59.43a.2.2,0,1,0-.31.25,1,1,0,0,0,.36.14A1,1,0,0,0,56.85,59.43Z"/><path class="cls-1" d="M57.31,59.8a.12.12,0,0,0-.13-.12.12.12,0,0,0-.11.13c0,.07.13.2.13.2S57.32,59.86,57.31,59.8Z"/><path class="cls-1" d="M57.68,59.91a.15.15,0,0,0-.2,0,.16.16,0,0,0,0,.2.72.72,0,0,0,.24.13S57.72,60,57.68,59.91Z"/><path class="cls-1" d="M56,58.21a.32.32,0,0,0-.28.35.33.33,0,0,0,.36.29c.18,0,.51-.39.51-.39S56.21,58.18,56,58.21Z"/><path class="cls-1" d="M56.85,58.7a.22.22,0,0,0-.08.31.22.22,0,0,0,.3.08c.11-.06.22-.38.22-.38S57,58.64,56.85,58.7Z"/><path class="cls-1" d="M57.53,59.26a.17.17,0,1,0,0,.34c.1,0,.3-.16.3-.16S57.62,59.26,57.53,59.26Z"/><path class="cls-1" d="M53,57.39a5.4,5.4,0,0,1,.69.08,4.27,4.27,0,0,1,.66.14l.28.12,0,0,0,.05.11.14c.13.2.28.4.42.59s.29.39.46.58l.07.07.11.07.06,0,0,0,.1,0h.38a2.08,2.08,0,0,1,.35,0,.41.41,0,0,1,.16,0s.07,0,.11.08a4,4,0,0,1,.41.58l.07,0a3.24,3.24,0,0,0-.17-.32,2,2,0,0,0-.2-.31.37.37,0,0,0-.16-.14.84.84,0,0,0-.2,0l-.37,0-.34,0-.07,0h0l0,0h0l0,0,0-.06a6,6,0,0,1-.39-.59c-.13-.2-.25-.41-.37-.61l-.09-.16a.46.46,0,0,0-.07-.1.38.38,0,0,0-.09-.09,1.57,1.57,0,0,0-.37-.21,5,5,0,0,0-.72-.23c-.25-.06-.49-.11-.74-.15Z"/><path class="cls-1" d="M42.11,46.84a.66.66,0,0,0,1.31,0c0-.36-.68-1.11-.68-1.11S42.1,46.47,42.11,46.84Z"/><path class="cls-1" d="M44.11,48.2a.54.54,0,1,0-.67.84c.23.19,1.05.15,1.05.15S44.34,48.39,44.11,48.2Z"/><path class="cls-1" d="M44.16,46.23a.59.59,0,0,0,1,.69,2.65,2.65,0,0,0,.11-1.15S44.35,46,44.16,46.23Z"/><path class="cls-1" d="M45.66,48.25a.39.39,0,0,0-.54-.12.38.38,0,0,0-.12.54c.11.19.69.36.69.36S45.78,48.43,45.66,48.25Z"/><path class="cls-1" d="M46.85,48.19a.4.4,0,0,0-.53.17.39.39,0,0,0,.17.53,1.77,1.77,0,0,0,.77,0S47,48.3,46.85,48.19Z"/><path class="cls-1" d="M48.16,47.12a.29.29,0,0,0-.32.27.3.3,0,0,0,.27.32c.16,0,.53-.26.53-.26S48.32,47.13,48.16,47.12Z"/><path class="cls-1" d="M49,47a.18.18,0,0,0-.26,0,.19.19,0,0,0,0,.27.93.93,0,0,0,.37.05S49.12,47,49,47Z"/><path class="cls-1" d="M49.54,46.68a.21.21,0,0,0-.25.17.22.22,0,0,0,.17.25c.12,0,.4-.15.4-.15S49.65,46.7,49.54,46.68Z"/><path class="cls-1" d="M46,46.76a.49.49,0,0,0,.8.58,2.35,2.35,0,0,0,.09-1S46.11,46.54,46,46.76Z"/><path class="cls-1" d="M47.34,46.37a.34.34,0,0,0,.67.14c0-.18-.21-.64-.21-.64S47.38,46.18,47.34,46.37Z"/><path class="cls-1" d="M48.66,46.18a.25.25,0,0,0,0,.36.27.27,0,0,0,.37,0,1.18,1.18,0,0,0,.13-.49S48.76,46.07,48.66,46.18Z"/><path class="cls-1" d="M41.94,49.29c.25-.24.53-.47.8-.69a6.41,6.41,0,0,1,.84-.59,1.83,1.83,0,0,1,.42-.18l.07,0h.09l.27,0c.36,0,.73.1,1.09.13a10.18,10.18,0,0,0,1.12.08h.15A.65.65,0,0,0,47,48l.09,0,.07,0,.12-.1a3.08,3.08,0,0,0,.4-.41c.12-.14.23-.28.35-.41l.18-.15a.43.43,0,0,1,.22,0,5.61,5.61,0,0,1,1.06.14l0-.12L49,46.7a2.63,2.63,0,0,0-.56-.1.74.74,0,0,0-.32,0,.86.86,0,0,0-.26.18c-.14.12-.27.25-.4.38a3,3,0,0,1-.39.34l-.1.06,0,0h-.24a10,10,0,0,1-1-.17l-1.07-.22-.26-.06-.19,0h-.2a2.19,2.19,0,0,0-.61.2,6.49,6.49,0,0,0-1,.57,9.8,9.8,0,0,0-.92.67Z"/><path class="cls-1" d="M17.88,55.06a.66.66,0,1,0,.05-1.31c-.36,0-1.14.61-1.14.61S17.52,55.05,17.88,55.06Z"/><path class="cls-1" d="M19.36,53.14a.54.54,0,0,0,.8.72c.2-.22.21-1,.21-1S19.56,52.92,19.36,53.14Z"/><path class="cls-1" d="M17.39,53a.59.59,0,0,0,.75-.91c-.25-.21-1.15-.18-1.15-.18S17.14,52.77,17.39,53Z"/><path class="cls-1" d="M19.5,51.6a.38.38,0,0,0-.15.53.39.39,0,0,0,.53.16c.19-.11.4-.67.4-.67S19.69,51.49,19.5,51.6Z"/><path class="cls-1" d="M19.51,50.41a.39.39,0,0,0,.68.4,1.8,1.8,0,0,0,0-.78S19.62,50.22,19.51,50.41Z"/><path class="cls-1" d="M18.51,49a.31.31,0,0,0,.26.34.3.3,0,0,0,.33-.26c0-.16-.23-.54-.23-.54S18.53,48.88,18.51,49Z"/><path class="cls-1" d="M18.41,48.15a.19.19,0,0,0,0,.26.19.19,0,0,0,.27,0c.07-.07.07-.36.07-.36S18.48,48.07,18.41,48.15Z"/><path class="cls-1" d="M18.15,47.64a.2.2,0,0,0,.16.25.22.22,0,0,0,.26-.15,1.12,1.12,0,0,0-.12-.41S18.18,47.52,18.15,47.64Z"/><path class="cls-1" d="M18,51.22a.48.48,0,0,0,.69-.07.49.49,0,0,0-.07-.69,2.23,2.23,0,0,0-.95-.15S17.82,51.05,18,51.22Z"/><path class="cls-1" d="M17.72,49.81a.33.33,0,0,0,.41-.24.33.33,0,0,0-.23-.41,1.57,1.57,0,0,0-.65.17S17.53,49.76,17.72,49.81Z"/><path class="cls-1" d="M17.6,48.48a.26.26,0,0,0,.37,0,.26.26,0,0,0,0-.36A1.18,1.18,0,0,0,17.5,48S17.5,48.37,17.6,48.48Z"/><path class="cls-1" d="M20.32,55.37c-.22-.26-.44-.55-.64-.83a6,6,0,0,1-.54-.88,1.76,1.76,0,0,1-.16-.43s0,0,0-.07a.28.28,0,0,1,0-.08l.05-.27c.07-.36.13-.73.19-1.09a9.61,9.61,0,0,0,.14-1.11.76.76,0,0,0,0-.15,1.42,1.42,0,0,0,0-.2l0-.08,0-.07L19.17,50a2.65,2.65,0,0,0-.39-.42l-.38-.38a1,1,0,0,1-.14-.19.42.42,0,0,1,0-.21,5.65,5.65,0,0,1,.2-1.06l-.11,0a4.56,4.56,0,0,0-.18.52,2.45,2.45,0,0,0-.13.55.6.6,0,0,0,0,.32,1.38,1.38,0,0,0,.16.27l.36.42a5.15,5.15,0,0,1,.32.41l.06.11,0,0v.05s0,0,0,0,0,0,0,0,0,.08,0,.12a10.43,10.43,0,0,1-.23,1c-.09.35-.18.7-.28,1.05l-.07.26a.69.69,0,0,0,0,.19.6.6,0,0,0,0,.19,2.16,2.16,0,0,0,.16.62A6.7,6.7,0,0,0,19,55c.19.33.39.64.61,1Z"/><path class="cls-1" d="M11.26,27.36a.54.54,0,0,0,.48.59.53.53,0,0,0,.59-.48c0-.29-.44-1-.44-1S11.29,27.07,11.26,27.36Z"/><path class="cls-1" d="M12.75,28.67a.44.44,0,0,0-.63.61,2.08,2.08,0,0,0,.84.23S12.92,28.84,12.75,28.67Z"/><path class="cls-1" d="M13,27.07a.48.48,0,0,0,.7.66c.19-.2.21-.93.21-.93A2.25,2.25,0,0,0,13,27.07Z"/><path class="cls-1" d="M14,28.86a.32.32,0,0,0-.58.28c.07.16.52.35.52.35A1.54,1.54,0,0,0,14,28.86Z"/><path class="cls-1" d="M15,28.93a.32.32,0,0,0-.37.53,1.44,1.44,0,0,0,.63,0S15.11,29,15,28.93Z"/><path class="cls-1" d="M16.13,28.19a.23.23,0,0,0-.28.19.23.23,0,0,0,.18.28c.14,0,.46-.15.46-.15S16.26,28.21,16.13,28.19Z"/><path class="cls-1" d="M16.86,28.15a.15.15,0,0,0-.21,0,.14.14,0,0,0,0,.21.7.7,0,0,0,.29.08S16.92,28.21,16.86,28.15Z"/><path class="cls-1" d="M17.29,28a.18.18,0,0,0-.22.11.19.19,0,0,0,.12.22c.09,0,.33-.08.33-.08S17.38,28,17.29,28Z"/><path class="cls-1" d="M14.38,27.68a.4.4,0,0,0,.59.55c.15-.16.17-.77.17-.77S14.53,27.52,14.38,27.68Z"/><path class="cls-1" d="M15.55,27.5a.28.28,0,1,0,.52.18c.05-.14-.11-.53-.11-.53S15.6,27.36,15.55,27.5Z"/><path class="cls-1" d="M16.63,27.48a.21.21,0,0,0,.26.33c.1-.07.16-.39.16-.39A.9.9,0,0,0,16.63,27.48Z"/><path class="cls-1" d="M10.89,29.33c.22-.16.47-.33.71-.48a4.78,4.78,0,0,1,.74-.39,2.28,2.28,0,0,1,.35-.11h.13l.22.06.87.21a8.93,8.93,0,0,0,.9.17h.12a.41.41,0,0,0,.16,0l.07,0,.06,0,.12-.06.36-.3.32-.29a1.2,1.2,0,0,1,.17-.11.43.43,0,0,1,.17,0,4.43,4.43,0,0,1,.85.22l0-.09-.41-.17a2.44,2.44,0,0,0-.44-.13.41.41,0,0,0-.27,0,.9.9,0,0,0-.22.11l-.37.27a2,2,0,0,1-.35.24l-.08,0,0,0h-.2c-.27-.06-.56-.15-.84-.24l-.84-.29L13,27.87l-.15,0h-.16a2,2,0,0,0-.51.1,5.13,5.13,0,0,0-.87.36,9.21,9.21,0,0,0-.81.45Z"/><path class="cls-1" d="M58,23.1a.66.66,0,0,0,1.08.76,3,3,0,0,0,.11-1.29S58.24,22.8,58,23.1Z"/><path class="cls-1" d="M58.84,25.39a.54.54,0,0,0-.66-.38.53.53,0,0,0-.38.66c.07.28.76.74.76.74A2.58,2.58,0,0,0,58.84,25.39Z"/><path class="cls-1" d="M60.05,23.83a.59.59,0,0,0-.39.74.6.6,0,0,0,.74.38c.31-.1.78-.87.78-.87A2.66,2.66,0,0,0,60.05,23.83Z"/><path class="cls-1" d="M60.06,26.35a.39.39,0,0,0-.37-.42.38.38,0,0,0-.42.36c0,.22.35.7.35.7S60,26.56,60.06,26.35Z"/><path class="cls-1" d="M61.05,27a.41.41,0,0,0-.53-.18.4.4,0,0,0-.18.53c.1.2.65.43.65.43A1.9,1.9,0,0,0,61.05,27Z"/><path class="cls-1" d="M62.74,26.91a.3.3,0,0,0-.39.45c.12.11.58.11.58.11A1.46,1.46,0,0,0,62.74,26.91Z"/><path class="cls-1" d="M63.54,27.31a.19.19,0,0,0-.36.1c0,.1.26.26.26.26A1,1,0,0,0,63.54,27.31Z"/><path class="cls-1" d="M64.11,27.38a.21.21,0,1,0-.31.29,1.06,1.06,0,0,0,.4.12S64.19,27.46,64.11,27.38Z"/><path class="cls-1" d="M61.17,25.32a.49.49,0,0,0-.32.62.5.5,0,0,0,.62.32c.26-.09.65-.73.65-.73A2.3,2.3,0,0,0,61.17,25.32Z"/><path class="cls-1" d="M62.53,25.82a.34.34,0,0,0,.45.51c.14-.12.21-.63.21-.63A1.58,1.58,0,0,0,62.53,25.82Z"/><path class="cls-1" d="M63.7,26.45a.26.26,0,0,0-.21.3.26.26,0,0,0,.29.22c.14,0,.4-.33.4-.33S63.85,26.43,63.7,26.45Z"/><path class="cls-1" d="M56.45,25c.34,0,.7-.07,1-.09a7,7,0,0,1,1,0A1.78,1.78,0,0,1,59,25l.07,0,.06.05.2.19c.26.26.53.51.8.76s.55.49.86.72l.12.09.18.07.09,0h.24a3.24,3.24,0,0,0,.57-.09l.53-.12a.91.91,0,0,1,.23,0s.13,0,.19.09a4.48,4.48,0,0,1,.77.74l.1-.07c-.11-.15-.22-.3-.34-.44a2.94,2.94,0,0,0-.39-.4.67.67,0,0,0-.29-.16,1.09,1.09,0,0,0-.31,0,4.86,4.86,0,0,0-.55.07,4.73,4.73,0,0,1-.52,0h-.21l0,0s0,0,0,0l-.1-.07c-.25-.23-.5-.5-.75-.76l-.72-.82-.18-.2a.92.92,0,0,0-.14-.13l-.16-.11a3,3,0,0,0-.61-.21,7.64,7.64,0,0,0-1.15-.13c-.38,0-.75,0-1.13,0Z"/></g></g></svg>